<?xml version="1.0" encoding="UTF-8" standalone="no"?>
<!-- Created with Inkscape (http://www.inkscape.org/) -->

<svg
   xmlns:dc="http://purl.org/dc/elements/1.1/"
   xmlns:cc="http://creativecommons.org/ns#"
   xmlns:rdf="http://www.w3.org/1999/02/22-rdf-syntax-ns#"
   xmlns:svg="http://www.w3.org/2000/svg"
   xmlns="http://www.w3.org/2000/svg"
   xmlns:xlink="http://www.w3.org/1999/xlink"
   xmlns:sodipodi="http://sodipodi.sourceforge.net/DTD/sodipodi-0.dtd"
   xmlns:inkscape="http://www.inkscape.org/namespaces/inkscape"
   width="744.09448819"
   height="1052.3622047"
   id="svg8916"
   version="1.1"
   inkscape:version="0.48.3.1 r9886"
   sodipodi:docname="attention-backing.svg">
  <defs
     id="defs8918">
    <linearGradient
       inkscape:collect="always"
       id="linearGradient10209">
      <stop
         style="stop-color:#000000;stop-opacity:1;"
         offset="0"
         id="stop10211" />
      <stop
         style="stop-color:#000000;stop-opacity:0;"
         offset="1"
         id="stop10213" />
    </linearGradient>
    <linearGradient
       inkscape:collect="always"
       id="linearGradient10192">
      <stop
         style="stop-color:#ff0f92;stop-opacity:1"
         offset="0"
         id="stop10194" />
      <stop
         style="stop-color:#c6c6c6;stop-opacity:0;"
         offset="1"
         id="stop10196" />
    </linearGradient>
    <linearGradient
       inkscape:collect="always"
       xlink:href="#linearGradient10192"
       id="linearGradient10178"
       x1="35.077824"
       y1="1076.4298"
       x2="-25.703981"
       y2="1054.9774"
       gradientUnits="userSpaceOnUse"
       spreadMethod="pad" />
    <linearGradient
       inkscape:collect="always"
       xlink:href="#linearGradient10209"
       id="linearGradient10215"
       x1="-63.681026"
       y1="1051.402"
       x2="-81.558029"
       y2="1076.4298"
       gradientUnits="userSpaceOnUse" />
  </defs>
  <sodipodi:namedview
     id="base"
     pagecolor="#ffffff"
     bordercolor="#666666"
     borderopacity="1.0"
     inkscape:pageopacity="0.0"
     inkscape:pageshadow="2"
     inkscape:zoom="3.2697461"
     inkscape:cx="372.04724"
     inkscape:cy="479.53614"
     inkscape:document-units="px"
     inkscape:current-layer="layer1"
     showgrid="true"
     inkscape:window-width="2560"
     inkscape:window-height="1416"
     inkscape:window-x="0"
     inkscape:window-y="24"
     inkscape:window-maximized="1">
    <inkscape:grid
       type="xygrid"
       id="grid9541" />
  </sodipodi:namedview>
  <metadata
     id="metadata8921">
    <rdf:RDF>
      <cc:Work
         rdf:about="">
        <dc:format>image/svg+xml</dc:format>
        <dc:type
           rdf:resource="http://purl.org/dc/dcmitype/StillImage" />
        <dc:title></dc:title>
      </cc:Work>
    </rdf:RDF>
  </metadata>
  <g
     inkscape:label="Layer 1"
     inkscape:groupmode="layer"
     id="layer1">
    <rect
       style="fill:none;stroke:#000000;stroke-opacity:0.10880827"
       id="rect2985"
       width="225"
       height="315"
       x="250.35715"
       y="412.00497"
       inkscape:export-filename="/home/tc1/git/flamewar/images/attention-backing.png"
       inkscape:export-xdpi="300"
       inkscape:export-ydpi="300" />
    <g
       transform="translate(404.12727,-461.36272)"
       id="layer1-5"
       inkscape:label="Layer 1">
      <g
         id="g9610"
         transform="matrix(-1.3984448,0,0,1.3984448,-50.072869,-481.60277)">
        <path
           style="fill:url(#linearGradient10178);fill-opacity:1;stroke:none;fill-rule:nonzero"
           d="m 25.254548,1059.9072 -0.902925,23.6734 -50.055605,10.7262 1e-6,-53.631 z"
           id="path10144"
           inkscape:connector-curvature="0"
           sodipodi:nodetypes="ccccc" />
        <path
           style="fill:#c6c6c6"
           d="m -37.927274,1158.5249 c -0.66,-0.66 -1.2,-1.7299 -1.2,-2.3776 0,-1.5501 -2.009669,-3.1478 -4.5,-3.5774 -1.632227,-0.2816 -2,0.2067 -2,2.655 0,2.6671 -0.3685,3.0354 -3.320774,3.3186 -3.591494,0.3447 -8.179226,-2.0172 -8.179226,-4.2108 0,-0.7786 -1.580855,-1.6074 -3.75,-1.9659 -2.0625,-0.341 -4.519289,-0.6248 -5.459531,-0.6309 -0.940242,-0.01 -2.783889,1.1477 -4.096993,2.5638 -1.841446,1.9859 -3.165733,2.5005 -5.790469,2.25 -2.672696,-0.2551 -3.473127,-0.8194 -3.729745,-2.6296 -0.233268,-1.6455 0.944877,-3.5765 4.118422,-6.75 4.369799,-4.3698 4.558004,-4.4452 11.101488,-4.4452 6.067599,0 6.735394,-0.2079 7.550246,-2.3512 0.491654,-1.2931 0.646087,-5.0843 0.343185,-8.4247 -0.478861,-5.281 -0.851047,-6.149 -2.852017,-6.6512 -1.265707,-0.3176 -2.586603,-1.4765 -2.935324,-2.5752 -0.469314,-1.4787 -1.513609,-1.9977 -4.019597,-1.9977 -1.862057,0 -4.553688,-0.5322 -5.9814,-1.1827 -1.969896,-0.8976 -2.523794,-1.8018 -2.297053,-3.75 0.253227,-2.1758 0.907258,-2.6435 4.289106,-3.0673 2.85528,-0.3578 4.090859,-1.028 4.34378,-2.3562 0.194404,-1.0209 -0.134904,-2.3446 -0.731796,-2.9415 -0.596892,-0.5969 -2.551593,-1.1116 -4.34378,-1.1438 -3.053878,-0.055 -3.278559,-0.3032 -3.577568,-3.9541 -0.203888,-2.4895 -1.088074,-4.5184 -2.449628,-5.6209 -2.122201,-1.7184 -2.122954,-1.7365 -0.191423,-4.6044 1.066536,-1.5835 2.397936,-4.2291 2.958665,-5.8791 0.895176,-2.6341 1.486897,-3 4.852024,-3 3.481063,0 3.944348,-0.321 5.052027,-3.5 2.127811,-6.1068 6.540055,-12.0077 11.177561,-14.9487 2.470583,-1.5668 7.513236,-3.5959 11.205895,-4.5092 3.692659,-0.9132 7.825004,-1.9773 9.182989,-2.3645 1.357984,-0.3872 3.454302,-2.2731 4.658483,-4.1908 1.20418,-1.9177 3.114522,-4.4993 4.245203,-5.7368 1.589966,-1.7402 3.152334,-2.25 6.895172,-2.25 3.18018,0 6.590179,0.8725 9.945889,2.5447 2.808574,1.3995 5.377275,3.2503 5.708223,4.1127 0.330949,0.8625 -0.303621,3.033 -1.410155,4.8234 -1.106533,1.7904 -2.013561,4.3272 -2.015617,5.6372 -0.0054,3.4207 -3.545013,8.7408 -6.215243,9.3414 -1.25456,0.2823 -4.306019,0.6318 -6.781019,0.7769 l -4.5,0.2637 -0.304751,4.1938 c -0.177577,2.4437 0.357179,5.4738 1.28145,7.2611 1.358586,2.6273 1.976307,2.9728 4.304751,2.4079 1.495203,-0.3628 4.470811,-2.2251 6.612463,-4.1386 3.767404,-3.366 4.087573,-3.4588 9.854689,-2.856 3.278426,0.3427 7.151165,1.2066 8.606086,1.9199 1.63383,0.8011 2.57887,2.0298 2.471549,3.2137 -0.09557,1.0542 0.69193,2.5231 1.75,3.2642 2.166154,1.5172 2.574729,4.8081 0.673763,5.4269 -1.965334,0.6397 -12.002753,0.2085 -14.585076,-0.6265 -1.744196,-0.5641 -2.94616,-0.1811 -4.75,1.5135 -1.328208,1.2478 -2.414924,2.7811 -2.414924,3.4073 0,0.6263 1.332484,2.4152 2.961075,3.9755 l 2.961075,2.8369 10.746638,-0.6948 c 5.910651,-0.3821 11.873162,-1.237 13.250032,-1.8998 2.49757,-1.2022 3.68715,-4.1367 4.75296,-11.7248 0.38026,-2.7073 0.0135,-3.955 -1.5887,-5.405 -1.84665,-1.6712 -2.08308,-3.022 -2.08308,-11.9014 0,-7.7064 1.065699,-10.0236 1.57289,-11.7543 0.906007,-3.0916 2.26228,-1.5404 4.31884,-0.9506 1.51027,0.4332 5.18997,2.6521 8.17711,4.9309 2.98714,2.2789 6.55616,4.4207 7.93116,4.7597 1.375,0.3389 3.0625,1.0593 3.75,1.6008 0.6875,0.5415 1.25,2.7209 1.25,4.8431 0,3.3842 -0.33803,3.9388 -2.75,4.5119 -1.5125,0.3593 -3.5375,1.3376 -4.5,2.174 -0.9625,0.8364 -1.75,2.5225 -1.75,3.747 0,2.9126 5.96252,7.4637 9.77829,7.4637 1.60145,0 3.61545,0.7875 4.47555,1.75 0.86009,0.9625 1.71734,2.875 1.90498,4.25 0.27354,2.0043 1.0351,2.5991 3.84118,3 2.63138,0.3759 3.57651,1.0371 3.8083,2.6641 0.20943,1.4701 -0.35176,2.3736 -1.75,2.8174 -1.13207,0.3593 -2.0583,1.0547 -2.0583,1.5454 0,1.5277 -5.38814,5.9731 -7.23978,5.9731 -1.29979,0 -1.785,0.8501 -1.85497,3.25 -0.13204,4.5295 -0.89881,36.06 -0.90235,37.1063 -0.002,0.471 -8.30351,0.6829 -18.4487,0.4709 -10.1452,-0.212 -18.654662,-0.5974 -18.909929,-0.8563 -0.255267,-0.259 -0.617155,-8.9656 -0.804196,-19.348 -0.205855,-11.4267 -0.734752,-18.9912 -1.340075,-19.1664 -0.55,-0.1592 -2.180535,-0.5463 -3.623411,-0.8603 -1.66957,-0.3632 -3.068387,-1.645 -3.847257,-3.5254 -0.825489,-1.9929 -2.17189,-3.1628 -4.136457,-3.5943 -2.527594,-0.5552 -3.501229,-0.034 -7.365439,3.9419 -2.449055,2.5199 -4.900218,4.5816 -5.44703,4.5816 -1.262171,0 -11.296905,12.4561 -13.453921,16.7003 -0.894567,1.7602 -1.626485,3.9074 -1.626485,4.7715 0,0.8641 1.076418,2.0615 2.39204,2.661 1.323432,0.603 3.067065,2.8083 3.90306,4.9365 1.306088,3.325 1.317668,4.0072 0.08538,5.0299 -0.784101,0.6507 -1.168852,1.9922 -0.855002,2.9811 0.371201,1.1695 -0.122173,2.1687 -1.411681,2.8588 -2.689416,1.4393 -11.429508,1.3452 -12.913797,-0.1391 z m -6.328383,-19.1453 c 0.614078,-0.7399 1.410765,-2.8166 1.770415,-4.6149 0.447033,-2.2351 1.845949,-4.1032 4.421801,-5.9047 2.706101,-1.8925 4.112287,-3.8408 4.990019,-6.9138 0.672171,-2.3532 0.933258,-4.5675 0.580195,-4.9206 -0.353063,-0.353 -1.655783,0.3105 -2.894933,1.4747 -1.713548,1.6098 -3.79238,2.1893 -8.682161,2.4206 l -6.429162,0.304 -0.121761,8 c -0.08679,5.7025 0.298352,8.5026 1.341092,9.75 0.804569,0.9625 2.013009,1.75 2.685421,1.75 0.672412,0 1.724995,-0.6054 2.339074,-1.3453 z m 6.952566,-44.5249 c 1.629204,-1.0329 1.188143,-7.3076 -0.553854,-7.8793 -0.676319,-0.222 -2.009847,1.2324 -2.963394,3.232 -1.505232,3.1565 -1.540859,3.7577 -0.270329,4.5613 0.804867,0.5091 1.688394,0.9256 1.963394,0.9256 0.275,0 1.095882,-0.3778 1.824183,-0.8396 z"
           id="path9624"
           inkscape:connector-curvature="0"
           sodipodi:nodetypes="sscscsccssssscscsscsssscsscsssscssssccsscccsccsscssccssscscsssscccsscssssccscssscscsccscsssscsccssscccccccssssccscsc" />
        <path
           style="fill:#b3b3b3"
           d="m -38.223909,1155.8775 c -0.978621,-2.8072 -4.420539,-5.1526 -7.561709,-5.1526 -1.246101,0 -1.430697,0.7118 -0.907634,3.5 0.642266,3.4236 0.584647,3.5002 -2.638709,3.509 -2.481404,0.01 -3.929028,-0.7619 -5.861068,-3.1121 -2.239889,-2.7248 -3.319441,-3.1747 -8.5,-3.5426 -3.263835,-0.2319 -6.719604,-0.5887 -7.679488,-0.793 -1.395985,-0.2972 -1.624802,0.1083 -1.143401,2.0263 0.475884,1.8961 0.108638,2.5813 -1.754757,3.2738 -1.29613,0.4817 -2.919099,0.6618 -3.606599,0.4002 -2.444327,-0.93 -1.189032,-4.3985 3,-8.2893 4.063865,-3.7745 4.542675,-3.9479 10.932612,-3.9598 5.984082,-0.011 6.754985,-0.2405 7.374973,-2.1939 0.380799,-1.1998 0.63771,-5.1373 0.570914,-8.75 -0.09156,-4.9523 -0.528819,-6.8147 -1.777017,-7.5686 -0.910563,-0.55 -2.568301,-2.0125 -3.683861,-3.25 -1.343934,-1.4908 -3.170549,-2.25 -5.413698,-2.25 -1.861973,0 -4.255822,-0.4658 -5.319664,-1.0352 -1.063843,-0.5693 -1.934259,-1.9193 -1.934259,-3 0,-1.4867 0.683433,-1.9648 2.80887,-1.9648 1.544879,0 3.682379,-0.6496 4.75,-1.4435 1.803476,-1.3412 1.831929,-1.6426 0.401236,-4.25 -1.272606,-2.3194 -2.097089,-2.75 -4.75,-2.4811 -3.145182,0.3188 -3.210106,0.2423 -3.210106,-3.7814 0,-2.728 -0.503608,-4.3 -1.5,-4.6824 -0.825,-0.3166 -1.5,-1.6043 -1.5,-2.8616 0,-1.2573 0.675,-2.545 1.5,-2.8616 0.825,-0.3166 1.506891,-1.6023 1.515313,-2.857 0.0084,-1.2548 0.409145,-2.9032 0.890495,-3.6632 0.621134,-0.9807 1.908929,-1.1879 4.436382,-0.7138 3.483109,0.6535 3.584783,0.5805 4.636726,-3.3261 1.175447,-4.3653 6.070439,-11.3181 10.036133,-14.2552 2.96583,-2.1966 16.172535,-6.8231 19.477149,-6.8231 1.381583,0 3.540418,-1.4121 5.40421,-3.5348 1.706976,-1.9441 3.103592,-3.9691 3.103592,-4.5 0,-0.5309 0.9,-1.8652 2,-2.9652 1.470882,-1.4709 3.333333,-2 7.039838,-2 5.125709,0 11.430768,2.4523 13.873904,5.3961 1.060036,1.2772 0.93393,1.9821 -0.733973,4.1025 -1.107656,1.4081 -2.323733,4.4595 -2.702394,6.7808 -0.37866,2.3213 -1.619417,5.2331 -2.757238,6.4706 -1.629808,1.7726 -3.15823,2.25 -7.203321,2.25 -2.824006,0 -5.944629,0.5923 -6.934718,1.3163 -1.624164,1.1876 -1.684816,1.8719 -0.620371,6.9993 0.648885,3.1257 1.880972,6.3842 2.737971,7.2412 0.856999,0.857 2.211962,1.3073 3.011028,1.0007 0.799067,-0.3066 2.089748,-0.5575 2.868181,-0.5575 0.778432,0 3.16919,-1.5845 5.312796,-3.5211 3.782597,-3.4174 4.070038,-3.5018 9.752881,-2.8631 3.220479,0.3619 6.642916,1.0622 7.605416,1.5563 0.9625,0.494 1.75,1.8992 1.75,3.1225 0,1.2234 0.9,2.7864 2,3.4733 1.1,0.687 2,1.6622 2,2.1673 0,1.3468 -3.1525,1.8259 -5.815475,0.8837 -1.338359,-0.4735 -3.107716,-0.3952 -4.192852,0.1856 -1.295818,0.6935 -2.675336,0.6411 -4.453325,-0.169 -2.289399,-1.0431 -2.907574,-0.8559 -5.557147,1.6825 -1.639661,1.5709 -2.981201,3.8124 -2.981201,4.981 0,1.2245 1.336607,3.1131 3.154473,4.4571 3.039466,2.2472 3.608437,2.3079 15.605926,1.6665 6.848298,-0.3661 13.298471,-1.1189 14.333721,-1.673 1.03524,-0.554 2.17573,-2.2318 2.53441,-3.7285 0.35868,-1.4966 1.26247,-3.9333 2.00843,-5.4149 0.91816,-1.8236 1.06773,-3.4527 0.46303,-5.0432 -0.59757,-1.5717 -0.44692,-3.4109 0.45511,-5.5562 1.39605,-3.3202 3.4449,-4.3353 3.4449,-1.7068 0,1 1,1.5 3,1.5 2.65544,0 3,0.3389 3,2.9503 0,1.7653 -0.70291,3.3487 -1.75,3.9423 -1.63952,0.9293 -1.62374,1.0882 0.25,2.5178 1.90441,1.4531 1.82078,1.5275 -1.75,1.5578 -3.83614,0.033 -5.00268,1.3371 -2.16821,2.4248 0.86998,0.3339 2.66053,0.607 3.979,0.607 3.27413,0 15.43921,4.07 15.43921,5.1654 0,0.4863 1.125,1.3118 2.5,1.8346 1.375,0.5228 2.5,1.4334 2.5,2.0235 0,0.5902 -1.27659,1.6138 -2.83687,2.2748 -1.56028,0.6609 -2.66144,1.7232 -2.44703,2.3606 0.4483,1.3327 -5.12064,2.8271 -6.75987,1.814 -0.60092,-0.3713 -0.85102,-1.3047 -0.55579,-2.0741 0.43267,-1.1275 -1.03445,-1.3988 -7.56379,-1.3988 -6.24082,0 -8.81643,-0.441 -11.21862,-1.921 -3.11682,-1.9203 -3.11907,-1.9201 -5.80422,0.3971 -1.4774,1.275 -2.4149,2.5895 -2.08333,2.921 0.33157,0.3316 1.59775,0.6029 2.81374,0.6029 1.21599,0 2.72154,0.6153 3.34567,1.3673 0.86313,1.04 0.77275,1.6678 -0.37756,2.6225 -0.83178,0.6903 -1.51233,1.875 -1.51233,2.6326 0,1.0677 2.01691,1.3776 8.96482,1.3776 7.94136,0 9.08701,-0.2283 10.03518,-2 0.5887,-1.1 1.74067,-2 2.55993,-2 0.81927,0 1.92843,1.1543 2.46482,2.5651 0.53639,1.4108 0.97525,2.7608 0.97525,3 0,0.2392 -1.16824,0.4349 -2.59609,0.4349 -1.42785,0 -4.93244,0.6792 -7.78798,1.5093 -6.45674,1.877 -14.0184,8.3367 -16.96286,14.4907 -1.18419,2.475 -2.878283,4.6335 -3.764654,4.7967 -1.170805,0.2155 -1.783186,-0.7418 -2.238995,-3.5 -0.345075,-2.0882 -0.632362,-7.0733 -0.638415,-11.0781 -0.0084,-5.5571 0.344194,-7.4177 1.488994,-7.857 0.825,-0.3166 1.5,-1.1536 1.5,-1.8602 0,-1.4515 -4.13416,-2.7709 -6.199231,-1.9784 -0.746986,0.2866 -2.245244,-0.1641 -3.329463,-1.0017 -1.852816,-1.4312 -1.866118,-1.5858 -0.221306,-2.5717 0.9625,-0.5769 1.75,-1.4766 1.75,-1.9993 0,-0.5227 -1.604584,-0.9503 -3.565741,-0.9503 -1.961158,0 -4.425794,-0.4603 -5.476969,-1.0229 -1.363377,-0.7296 -2.494327,-0.6587 -3.945432,0.2476 -1.118813,0.6987 -2.275711,2.0313 -2.570884,2.9613 -0.295173,0.93 -2.554118,2.9561 -5.019878,4.5025 -4.342332,2.7232 -12.43345,12.4698 -15.782678,19.0118 -0.90113,1.7602 -1.638418,4.1112 -1.638418,5.2244 0,1.2246 1.151957,2.6196 2.916727,3.5322 1.920198,0.993 3.154233,2.5897 3.611882,4.6733 0.528986,2.4085 0.299376,3.3866 -0.960559,4.0917 -1.062073,0.5943 -1.436566,1.617 -1.044494,2.8523 0.38645,1.2176 0.126763,1.9628 -0.706168,2.0265 -0.724564,0.055 -3.475975,0.2871 -6.114247,0.5148 -4.537074,0.3917 -4.851175,0.2583 -5.799776,-2.4629 z m -5.927724,-15.1396 c 1.074832,-0.5752 2.121524,-2.6286 2.509035,-4.9223 0.500646,-2.9633 1.507501,-4.5103 4.076182,-6.263 2.254727,-1.5385 3.924588,-3.829 4.925224,-6.7558 0.832655,-2.4355 1.513918,-5.023 1.513918,-5.75 0,-2.0414 -3.368811,-1.5622 -4.767927,0.6781 -1.03873,1.6633 -2.332028,2 -7.68153,2 -3.842481,0 -6.724438,0.4724 -7.157535,1.1731 -1.120478,1.813 -1.337356,17.0624 -0.271,19.0549 1.04951,1.961 4.020446,2.3013 6.853633,0.785 z m 9.024359,-48.813 c 0,-2.09 -0.518938,-4.3189 -1.153196,-4.9532 -1.703876,-1.7039 -4.439203,0.1452 -5.74162,3.8813 -0.607851,1.7437 -1.105184,3.5532 -1.105184,4.0211 0,0.468 1.8,0.8508 4,0.8508 3.964912,0 4,-0.033 4,-3.8 z m 49,57.918 c 0,-1.1 0.45,-2.2781 1,-2.618 0.55,-0.3399 1,0.282 1,1.382 0,1.1 -0.45,2.2781 -1,2.618 -0.55,0.3399 -1,-0.282 -1,-1.382 z"
           id="path9622"
           inkscape:connector-curvature="0" />
        <path
           style="fill:#a0a0a0"
           d="m -52.432725,1156.6342 c -1.4259,-0.8456 -1.557828,-1.3691 -0.627556,-2.49 0.95252,-1.1477 0.783085,-1.4193 -0.885531,-1.4193 -1.134886,0 -2.341543,-0.45 -2.681462,-1 -0.339919,-0.55 -3.403976,-1.0069 -6.809017,-1.0153 -3.405041,-0.01 -6.79776,-0.3999 -7.539376,-0.8698 -0.741616,-0.47 -1.187097,-1.7006 -0.989957,-2.7347 0.300174,-1.5746 1.413362,-1.9248 6.848393,-2.1547 5.14118,-0.2175 6.853651,-0.7081 8.239957,-2.3608 1.254425,-1.4955 1.746133,-3.8248 1.736345,-8.2255 -0.0075,-3.3766 -0.284994,-7.1517 -0.616631,-8.3892 -0.349519,-1.3042 -1.379852,-2.25 -2.451162,-2.25 -1.016501,0 -2.32985,-0.9 -2.918552,-2 -0.588702,-1.1 -2.067035,-2.0025 -3.285184,-2.0056 -1.218149,0 -3.902316,-0.4742 -5.964816,-1.047 -2.105712,-0.5848 -3.75,-1.6702 -3.75,-2.4754 0,-1.3327 1.477566,-1.9446 6.5,-2.6916 1.354227,-0.2014 2.104053,-1.2022 2.322258,-3.0994 0.177241,-1.5411 -0.211062,-3.4446 -0.862897,-4.23 -0.665798,-0.8022 -2.559891,-1.3235 -4.322258,-1.1895 -3.02551,0.23 -3.148136,0.085 -3.447262,-4.066 -0.186852,-2.5931 -0.882587,-4.5241 -1.75,-4.857 -0.791913,-0.3038 -1.439841,-0.8855 -1.439841,-1.2925 0,-0.407 0.9,-1.7777 2,-3.046 1.1,-1.2683 2,-3.314 2,-4.546 0,-1.232 0.707599,-2.5116 1.572442,-2.8434 0.864843,-0.3319 2.488155,-0.1134 3.607359,0.4856 1.119205,0.599 2.360746,0.7099 2.75898,0.2464 0.398234,-0.4634 1.24339,-2.6426 1.878123,-4.8426 1.346695,-4.6677 8.568525,-13.5 11.038396,-13.5 0.934828,0 2.68982,-0.6935 3.899982,-1.5411 2.537867,-1.7776 10.778129,-4.4322 13.807627,-4.4481 2.379466,-0.013 6.47947,-4.0651 8.83328,-8.7312 0.893482,-1.7712 2.490271,-3.6837 3.54842,-4.25 1.058149,-0.5663 3.415992,-1.0197 5.23965,-1.0076 3.847617,0.025 10.68936,2.9042 12.712515,5.3488 1.214192,1.4672 1.133128,1.9781 -0.620147,3.9085 -1.109307,1.2214 -2.067841,2.8957 -2.130076,3.7207 -0.364068,4.8262 -1.649817,8.2751 -3.518383,9.4378 -1.170492,0.7284 -4.895235,1.5912 -8.277206,1.9174 -4.742729,0.4574 -6.428835,0.2559 -7.372445,-0.8811 -0.672873,-0.8107 -1.618306,-1.4741 -2.100962,-1.4741 -1.534054,0 -0.94882,3.1486 1.245018,6.6983 1.595517,2.5816 2.003148,4.494 1.641623,7.7014 -0.303351,2.6913 -0.07166,4.3343 0.627427,4.4493 7.540222,1.2407 9.620432,1.1961 12.44917,-0.2667 1.704955,-0.8816 3.578465,-2.4972 4.163355,-3.5901 0.930188,-1.738 1.866535,-1.9365 7.472824,-1.5837 3.525162,0.2218 6.884956,0.6972 7.466207,1.0564 0.581252,0.3592 1.056821,1.3016 1.056821,2.0941 0,0.8828 -1.000727,1.441 -2.583333,1.441 -3.673477,0 -2.520876,2.3811 1.452176,3 1.765424,0.275 3.192153,0.8375 3.170509,1.25 -0.04538,0.865 -0.671046,0.8805 -3.802338,0.095 -1.244642,-0.3123 -2.881777,-0.054 -3.638077,0.5733 -1.032598,0.857 -2.031872,0.842 -4.012035,-0.06 -2.401284,-1.0941 -2.947498,-0.9004 -6.111923,2.1666 -2.585806,2.5063 -3.474979,4.2135 -3.474979,6.672 0,2.0556 0.494488,3.3038 1.30887,3.3038 0.719879,0 2.114578,0.5891 3.099332,1.3092 1.693818,1.2386 1.646277,1.5217 -0.880773,5.2455 -1.469179,2.165 -4.425419,5.0633 -6.569423,6.4408 -2.144003,1.3775 -6.217653,5.6545 -9.052555,9.5045 -5.230259,7.1031 -7.905451,12.1754 -7.905451,14.9893 0,0.8545 1.158748,2.0815 2.574996,2.7268 1.416247,0.6453 3.216247,2.4133 4,3.9289 0.783752,1.5156 1.425004,3.0142 1.425004,3.3301 0,0.3159 -1.145495,1.0099 -2.545544,1.5422 -1.620163,0.616 -2.438105,1.6067 -2.25,2.7253 0.240947,1.4327 -0.559605,1.8128 -4.333536,2.0573 -4.19091,0.2714 -4.687215,0.068 -5.243263,-2.1473 -0.704599,-2.8073 -6.236379,-6.4111 -8.976576,-5.8479 -1.793379,0.3686 -1.859379,1.1261 -0.537769,6.1716 0.479789,1.8317 -2.917237,2.4166 -5.418763,0.933 z m 6.588443,-14.4499 c 3.607336,-1.6761 4.302897,-2.5029 4.811092,-5.7186 0.4228,-2.6754 1.674595,-4.6937 4.341729,-7 2.719328,-2.3516 4.101062,-4.6127 5.035656,-8.2408 0.708406,-2.75 1.09057,-5.3375 0.849254,-5.75 -0.85595,-1.4631 -3.229331,-0.7185 -4.781096,1.5 -1.31546,1.8807 -2.760996,2.3321 -8.806704,2.75 l -7.232923,0.5 -0.5,8.5 c -0.275,4.675 -0.05346,10.736 0.492307,13.4688 0.54577,2.7329 1.123116,4.2896 1.282992,3.4595 0.159877,-0.8302 2.188338,-2.3912 4.507693,-3.4689 z m 2.39411,-40.0603 c 0.337883,-0.8805 -0.01374,-1.9986 -0.781385,-2.4847 -0.767644,-0.4861 -3.341213,-0.8907 -5.719041,-0.8991 -3.582637,-0.013 -4.265986,0.2845 -3.988647,1.7347 0.212016,1.1086 1.613293,1.9766 3.823324,2.3684 5.640909,0.9998 6.021831,0.9587 6.665749,-0.7193 z m 9.117405,-9.3991 c 0.165762,-1.97 -0.355075,-4.3743 -1.191431,-5.5 -1.177099,-1.5843 -1.861833,-1.7778 -3.294507,-0.9311 -2.287285,1.3518 -5.670368,8.0367 -4.78897,9.4628 0.36518,0.5909 2.535161,0.938 4.822182,0.7713 3.962069,-0.2887 4.172111,-0.4681 4.452726,-3.803 z m 32.617962,-4.6048 c 0.866824,-0.3326 1.339217,-0.988 1.049762,-1.4563 -0.639297,-1.0344 -3.462231,-0.082 -3.462231,1.1681 0,1.0548 0.316209,1.0926 2.412469,0.2882 z m -76.899696,66.6255 c -0.728116,-1.1781 1.175476,-5.0207 2.487227,-5.0207 1.311751,0 3.215343,3.8426 2.487227,5.0207 -0.332893,0.5386 -1.452146,0.9793 -2.487227,0.9793 -1.035081,0 -2.154334,-0.4407 -2.487227,-0.9793 z m 95.933377,-35.1078 c -0.36954,-0.598 -0.15236,-1.6067 0.48262,-2.2417 0.87268,-0.8727 1.37235,-0.802 2.04689,0.2894 0.95311,1.5422 0.4725,3.0394 -0.97566,3.0394 -0.48508,0 -1.18431,-0.4892 -1.55385,-1.0871 z m 24.74552,-0.9879 c 0.19708,-0.5912 0.78583,-1.075 1.30833,-1.075 0.5225,0 1.11125,0.4838 1.30833,1.075 0.19709,0.5912 -0.39166,1.075 -1.30833,1.075 -0.91667,0 -1.50542,-0.4838 -1.30833,-1.075 z m -32.44167,-11.6307 c 1.2375,-0.2384 3.2625,-0.2384 4.5,0 1.2375,0.2383 0.225,0.4333 -2.25,0.4333 -2.475,0 -3.4875,-0.195 -2.25,-0.4333 z m 17.8118,-0.1943 c -0.30592,-0.495 1.13002,-0.8896 3.19099,-0.8768 2.89842,0.018 3.29418,0.2059 1.74721,0.8297 -2.73166,1.1016 -4.27738,1.1163 -4.9382,0.047 z"
           id="path9620"
           inkscape:connector-curvature="0" />
        <path
           style="fill:#8b8b8b"
           d="m -52.432725,1156.6342 c -1.4259,-0.8456 -1.557828,-1.3691 -0.627556,-2.49 0.95252,-1.1477 0.783085,-1.4193 -0.885531,-1.4193 -1.134886,0 -2.341543,-0.45 -2.681462,-1 -0.339919,-0.55 -3.403976,-1.0069 -6.809017,-1.0153 -3.405041,-0.01 -6.79776,-0.3999 -7.539376,-0.8698 -0.741616,-0.47 -1.187097,-1.7006 -0.989957,-2.7347 0.300174,-1.5746 1.413362,-1.9248 6.848393,-2.1547 5.14118,-0.2175 6.853651,-0.7081 8.239957,-2.3608 1.254425,-1.4955 1.746133,-3.8248 1.736345,-8.2255 -0.0075,-3.3766 -0.284994,-7.1517 -0.616631,-8.3892 -0.349519,-1.3042 -1.379852,-2.25 -2.451162,-2.25 -1.016501,0 -2.32985,-0.9 -2.918552,-2 -0.588702,-1.1 -2.067035,-2.0025 -3.285184,-2.0056 -1.218149,0 -3.902316,-0.4742 -5.964816,-1.047 -2.105712,-0.5848 -3.75,-1.6702 -3.75,-2.4754 0,-1.3327 1.477566,-1.9446 6.5,-2.6916 1.354227,-0.2014 2.104053,-1.2022 2.322258,-3.0994 0.177241,-1.5411 -0.211062,-3.4446 -0.862897,-4.23 -0.665798,-0.8022 -2.559891,-1.3235 -4.322258,-1.1895 -3.02551,0.23 -3.148136,0.085 -3.447262,-4.066 -0.186852,-2.5931 -0.882587,-4.5241 -1.75,-4.857 -0.791913,-0.3038 -1.439841,-0.8855 -1.439841,-1.2925 0,-0.407 0.9,-1.7777 2,-3.046 1.1,-1.2683 2,-3.314 2,-4.546 0,-1.232 0.707599,-2.5116 1.572442,-2.8434 0.864843,-0.3319 2.478384,-0.1186 3.585647,0.474 1.107262,0.5926 2.279212,0.8114 2.604334,0.4863 0.325122,-0.3251 1.308722,-2.7241 2.185779,-5.331 0.877057,-2.607 2.108069,-4.6405 2.735582,-4.5191 0.627514,0.1214 1.636279,-1.2002 2.2417,-2.9369 1.264171,-3.6264 2.750953,-2.8407 3.247569,1.7161 0.302934,2.7797 0.584011,2.9743 3.826947,2.6497 5.26273,-0.5267 7.141426,-1.8775 6.904495,-4.9645 -0.360684,-4.6993 0.04593,-6.0883 2.104956,-7.1903 1.704689,-0.9123 2.151511,-0.7017 2.946122,1.3882 0.52559,1.3825 1.90296,2.607 3.138421,2.7903 2.286729,0.3392 2.514065,0.6396 5.639603,7.4527 1.823961,3.9759 1.82686,4.1673 0.07964,5.2585 -0.997282,0.6228 -1.813237,1.8215 -1.813237,2.6637 0,2.0127 3.468567,8.7658 5.270425,10.2612 1.097674,0.911 2.633788,0.7864 6.823088,-0.5532 l 5.406487,-1.7288 -4.25,-0.3213 c -2.887509,-0.2182 -4.25,-0.7837 -4.25,-1.7638 0,-1.1251 1.410413,-1.4037 6.408211,-1.266 4.064794,0.112 7.177807,0.757 8.512717,1.764 2.097905,1.5824 2.092702,1.599 -1.65821,5.3038 -2.069495,2.044 -4.887718,4.6542 -6.262718,5.8004 -1.687851,1.4069 -2.093925,2.2525 -1.25,2.603 0.6875,0.2855 1.25,1.3832 1.25,2.4394 0,1.0561 -0.9,3.5995 -2,5.6518 -1.1,2.0524 -2,4.5046 -2,5.4493 0,2.4179 -2.034196,6.8321 -4.625036,10.0364 -1.211591,1.4984 -3.440639,5.2543 -4.953441,8.3464 -1.560672,3.1899 -3.766928,6.085 -5.100039,6.6924 -1.976117,0.9004 -2.254262,1.5781 -1.750258,4.2647 0.51482,2.7442 0.27343,3.2794 -1.713576,3.799 -1.272046,0.3326 -3.222899,0.033 -4.33523,-0.665 -1.112331,-0.6984 -2.854433,-1.0914 -3.871339,-0.8735 -1.792284,0.3841 -1.858473,1.1457 -0.537769,6.1878 0.479789,1.8316 -2.917237,2.4166 -5.418763,0.933 z m 5.304733,-13.7592 c 2.092655,-0.7295 3.001424,-0.6822 3.316595,0.1725 0.332069,0.9006 0.727421,0.9017 1.681765,0.01 0.686202,-0.6449 1.387973,-3.2718 1.559489,-5.8374 0.263223,-3.9374 0.882109,-5.1579 3.969087,-7.8273 2.627697,-2.2723 4.019825,-4.5702 4.945251,-8.1626 0.708406,-2.75 1.09057,-5.3375 0.849254,-5.75 -0.85595,-1.4632 -3.229331,-0.7186 -4.781096,1.5 -1.31546,1.8807 -2.760996,2.332 -8.806704,2.75 l -7.232923,0.4997 -0.5,8.5 c -0.275,4.675 -0.05346,10.736 0.492307,13.4688 0.54577,2.7329 1.134552,4.2302 1.308406,3.3275 0.173854,-0.9028 1.613211,-2.0936 3.198569,-2.6462 z m 7.372011,-37.3641 c 0.828547,-1.3234 0.606613,-2.3386 -0.974101,-4.4558 -1.125915,-1.5081 -3.588385,-3.1376 -5.472155,-3.6213 -1.88377,-0.4836 -4.13547,-1.516 -5.003778,-2.2941 -0.868307,-0.7781 -2.027366,-1.4148 -2.575686,-1.4148 -0.54832,0 -2.032317,1.1021 -3.297773,2.4491 -1.361805,1.4496 -2.05186,3.0979 -1.690798,4.0388 0.792886,2.0663 12.435391,7.4677 15.542136,7.2106 1.319526,-0.1092 2.881996,-0.9698 3.472155,-1.9125 z m 5.721372,-13.11 c 0.428739,-2.6591 0.18216,-4.2583 -0.809489,-5.25 -0.784318,-0.7843 -1.999146,-1.426 -2.699617,-1.426 -0.700471,0 -1.987007,0.7883 -2.858968,1.7518 -2.078242,2.2965 -3.898601,7.1576 -3.139964,8.3851 0.329414,0.533 2.464761,0.8328 4.745215,0.6661 3.960054,-0.2894 4.173971,-0.4747 4.762823,-4.127 z m -15.263673,-5.9871 c 1.473137,-2.4319 1.493387,-2.871 0.171008,-3.7084 -0.825,-0.5224 -2.032176,-0.9568 -2.682612,-0.9652 -0.650437,-0.01 -1.468262,0.8847 -1.817388,1.9847 -0.779666,2.4565 0.307103,6.231 1.663851,5.7787 0.546773,-0.1822 1.746086,-1.5727 2.665141,-3.0898 z m 12.171008,70.3111 c 0,-1.2529 1.061241,-1.2529 3,0 1.212959,0.7839 1.069438,0.9723 -0.75,0.9847 -1.2375,0.01 -2.25,-0.4347 -2.25,-0.9847 z m -41.487227,-1.9793 c -0.728116,-1.1781 1.175476,-5.0207 2.487227,-5.0207 1.311751,0 3.215343,3.8426 2.487227,5.0207 -0.332893,0.5386 -1.452146,0.9793 -2.487227,0.9793 -1.035081,0 -2.154334,-0.4407 -2.487227,-0.9793 z m 49.173773,-4.2441 c -0.9276,-1.6163 -1.686546,-4.0388 -1.686546,-5.3833 0,-2.3567 0.100977,-2.3924 2.805315,-0.994 2.799428,1.4477 5.664764,6.0311 4.722973,7.5549 -0.273416,0.4424 -1.320187,1.0196 -2.326158,1.2827 -1.259923,0.3295 -2.353815,-0.4361 -3.515584,-2.4603 z m 46.759604,-30.8637 c -0.36954,-0.598 -0.15236,-1.6067 0.48262,-2.2417 0.87268,-0.8727 1.37235,-0.802 2.04689,0.2894 0.95311,1.5422 0.4725,3.0394 -0.97566,3.0394 -0.48508,0 -1.18431,-0.4892 -1.55385,-1.0871 z m 24.74552,-0.9879 c 0.19708,-0.5912 0.78583,-1.075 1.30833,-1.075 0.5225,0 1.11125,0.4838 1.30833,1.075 0.19709,0.5912 -0.39166,1.075 -1.30833,1.075 -0.91667,0 -1.50542,-0.4838 -1.30833,-1.075 z m -56.94167,-2.587 c 0.9625,-1.0975 1.75,-2.6725 1.75,-3.5001 0,-0.8275 0.251057,-1.7556 0.557905,-2.0625 0.306847,-0.3068 1.421096,-0.3321 2.476108,-0.056 1.427858,0.3734 1.691314,0.9208 1.030623,2.1413 -0.48817,0.9018 -2.389919,2.5021 -4.226109,3.5563 -3.329478,1.9115 -3.333784,1.9113 -1.588527,-0.079 z m 14.25,-24.338 c -0.339919,-0.55 -0.168034,-1 0.381966,-1 0.55,0 1.278115,0.45 1.618034,1 0.339919,0.55 0.168034,1 -0.381966,1 -0.55,0 -1.278115,-0.45 -1.618034,-1 z m 4.25,-5.7163 c -1.589746,-0.2408 -2.75,-1.0481 -2.75,-1.9135 0,-1.0858 0.890261,-1.4109 3.241811,-1.1836 2.135053,0.2064 3.354989,0.9109 3.573324,2.0634 0.182332,0.9625 -0.03898,1.6826 -0.491811,1.6002 -0.452828,-0.082 -2.060824,-0.3373 -3.573324,-0.5665 z m -10.153444,-1.1275 c -0.346049,-0.5599 -0.1419,-1.3192 0.453663,-1.6872 1.537485,-0.9503 2.529468,0.3513 1.245982,1.6348 -0.71818,0.7182 -1.277526,0.7354 -1.699645,0.052 z m -18.17306,-15.9541 c -0.324798,-1.4862 -0.762845,-3.262 -0.973438,-3.9464 -0.210593,-0.6843 -1.749763,-2.0755 -3.420379,-3.0915 l -3.037484,-1.8472 2.110312,-1.9085 c 1.160672,-1.0497 2.963898,-3.581 4.007169,-5.6251 1.043271,-2.0441 2.765803,-4.1816 3.827849,-4.75 1.062046,-0.5684 3.423076,-1.0235 5.246734,-1.0114 3.799717,0.025 10.681806,2.8949 12.651831,5.2757 0.734849,0.8881 1.04504,2.0856 0.689312,2.6612 -0.449843,0.7279 -1.241058,0.7285 -2.59852,0 -1.69247,-0.9058 -2.315403,-0.4454 -4.689312,3.4657 -1.573108,2.5917 -3.496922,4.5237 -4.522754,4.5418 -1.492125,0.026 -1.603798,0.3706 -0.680261,2.0962 0.883731,1.6513 1.391243,1.8269 2.535184,0.8776 1.055398,-0.8759 1.781994,-0.8951 2.77227,-0.073 0.738105,0.6126 1.699713,0.7802 2.136905,0.3725 0.437193,-0.4078 0.583925,-0.068 0.326071,0.7544 -0.257853,0.8227 -1.234435,1.4977 -2.170183,1.5 -0.935747,0 -2.023883,0.498 -2.41808,1.1014 -0.394197,0.6034 -3.076064,1.3694 -5.959704,1.7021 -5.082058,0.5863 -5.261107,0.5219 -5.833522,-2.0972 z m 15.726504,-8.1521 c 0.429712,-1.2891 1.801307,-1.5207 1.925,-0.325 0.04125,0.3988 -0.465,0.905 -1.125,1.125 -0.66,0.22 -1.02,-0.14 -0.8,-0.8 z"
           id="path9618"
           inkscape:connector-curvature="0" />
        <path
           style="fill:#878787"
           d="m -50.658311,1155.6747 c -0.950218,-1.5375 0.35135,-2.5295 1.634836,-1.246 0.71818,0.7182 0.735435,1.2775 0.05243,1.6996 -0.559919,0.3461 -1.31919,0.1419 -1.687268,-0.4536 z m 22.531037,-5.4498 c 0,-0.825 -0.45,-1.5 -1,-1.5 -0.55,0 -1,-0.9784 -1,-2.1743 l 0,-2.1743 2.5,2.3486 c 1.375,1.2918 2.5,2.9452 2.5,3.6743 0,0.7291 -0.675,1.3257 -1.5,1.3257 -0.825,0 -1.5,-0.675 -1.5,-1.5 z m -30.25,-0.7994 c -1.5125,-0.5977 -2.735346,-1.5623 -2.717435,-2.1436 0.01791,-0.5814 1.607626,-1.7948 3.532701,-2.6966 l 3.500134,-1.6396 1.4673,3.5117 c 0.807015,1.9315 1.4673,3.6818 1.4673,3.8896 0,0.7295 -4.528355,0.1539 -7.25,-0.9215 z m 16.69113,-0.1688 c -1.067622,-0.8075 -2.87863,-1.4825 -4.024463,-1.5 -1.145834,-0.017 -2.379429,-0.3279 -2.741324,-0.6898 -1.130696,-1.1307 1.457711,-3.342 3.911918,-3.342 1.292378,0 2.806404,-0.8671 3.377555,-1.9343 0.569351,-1.0638 1.035184,-3.2787 1.035184,-4.922 0,-2.2455 0.987846,-3.8334 3.975754,-6.391 3.06518,-2.6236 4.294672,-4.6455 5.368215,-8.8279 0.765854,-2.9836 1.17862,-5.9873 0.917257,-6.6748 -0.784563,-2.0638 -4.130946,-1.415 -6.448175,1.25 -1.867501,2.1478 -3.0197,2.5 -8.178935,2.5 -4.789391,0 -6.4738,0.4402 -8.319665,2.1743 -1.272948,1.1959 -2.314451,1.6373 -2.314451,0.981 0,-0.7554 -0.867882,-0.9756 -2.364465,-0.6 -1.555184,0.3904 -2.551569,0.1059 -2.911125,-0.8311 -0.328742,-0.8567 -2.644402,-1.673 -5.80896,-2.0478 -5.367443,-0.6357 -8.513204,-2.2576 -5.832667,-3.0071 6.90446,-1.9308 7.424213,-2.2667 7.739876,-5.0023 0.177463,-1.538 -0.400398,-3.8998 -1.284136,-5.2486 -1.35888,-2.0739 -1.926675,-2.281 -3.680018,-1.3427 -1.140273,0.6103 -2.417454,0.7304 -2.838179,0.2669 -0.420726,-0.4634 -1.045096,-3.3769 -1.387488,-6.4744 -0.480329,-4.3454 -0.281068,-5.9153 0.872315,-6.8725 0.822166,-0.6823 1.494847,-2.0105 1.494847,-2.9515 0,-0.941 0.276578,-1.9874 0.614619,-2.3255 0.33804,-0.338 1.668251,0.076 2.956024,0.9195 1.287772,0.8438 2.750542,1.2813 3.250598,0.9723 0.500056,-0.3091 1.162983,-2.1259 1.473172,-4.0373 0.604671,-3.7262 5.345289,-12.5732 6.73725,-12.5732 0.462891,0 0.982631,1.4625 1.154979,3.25 0.295701,3.0669 0.510572,3.2303 3.813358,2.8997 5.26273,-0.5267 7.141426,-1.8775 6.904495,-4.9645 -0.360684,-4.6993 0.04593,-6.0883 2.104956,-7.1903 1.704689,-0.9123 2.151511,-0.7017 2.946122,1.3882 0.52559,1.3825 1.90296,2.607 3.138421,2.7903 2.286729,0.3392 2.514065,0.6396 5.639603,7.4527 1.823961,3.9759 1.82686,4.1673 0.07964,5.2585 -0.997282,0.6228 -1.813237,1.8215 -1.813237,2.6637 0,2.0127 3.468567,8.7658 5.270425,10.2612 1.096121,0.9097 2.639717,0.8019 6.823088,-0.4766 4.663037,-1.425 5.069968,-1.7379 2.95927,-2.2752 -2.2267,-0.5668 -2.072097,-0.7353 1.715732,-1.8702 3.281368,-0.9831 4.576553,-0.9889 6.116044,-0.027 1.924842,1.2021 1.921721,1.262 -0.215732,4.1448 -1.192855,1.6088 -3.743827,4.5036 -5.668827,6.4329 -2.247134,2.2521 -3.052548,3.6726 -2.25,3.9684 0.6875,0.2533 1.25,1.3247 1.25,2.3809 0,1.0561 -0.9,3.5995 -2,5.6518 -1.1,2.0524 -2,4.6889 -2,5.8589 0,1.17 -1.2375,3.7534 -2.75,5.7408 -7.241481,9.5155 -8.25,11.1441 -8.25,13.3225 0,2.382 -3.149463,6.339 -5.045313,6.339 -0.653044,0 -0.798913,1.3134 -0.388709,3.5 0.565203,3.0128 0.389313,3.5 -1.263557,3.5 -1.056089,0 -2.79367,-0.6607 -3.861291,-1.4682 z m 1.645081,-43.1357 c 1.116362,-1.3451 1.070024,-2.0588 -0.28723,-4.4236 -0.890083,-1.5509 -1.358978,-3.0792 -1.04199,-3.3962 0.316988,-0.3169 1.738842,-0.5832 3.159676,-0.5916 1.420833,-0.01 3.209601,-0.4119 3.97504,-0.8966 1.001945,-0.6345 1.243647,-2.1949 0.863035,-5.5717 -0.290769,-2.5797 -0.996591,-5.1582 -1.568491,-5.7301 -0.571901,-0.5719 -2.192294,-0.7506 -3.600874,-0.3971 -1.639071,0.4114 -3.285435,2.0627 -4.573216,4.587 -1.106688,2.1693 -2.012161,4.8924 -2.012161,6.0514 0,1.7217 -0.411577,1.9818 -2.25,1.4215 -1.2375,-0.3771 -2.960433,-1.3074 -3.828741,-2.0674 -0.868307,-0.7599 -2.027366,-1.3817 -2.575686,-1.3817 -0.54832,0 -2.032317,1.1021 -3.297773,2.4491 -1.361805,1.4496 -2.05186,3.0979 -1.690798,4.0388 0.691352,1.8017 12.031462,7.3252 15.270553,7.438 1.170156,0.041 2.726551,-0.6476 3.458656,-1.5298 z m -9.257219,-19.7072 c 1.473137,-2.4319 1.493387,-2.871 0.171008,-3.7084 -0.825,-0.5224 -2.032176,-0.9568 -2.682612,-0.9652 -0.650437,-0.01 -1.468262,0.8847 -1.817388,1.9847 -0.779666,2.4565 0.307103,6.231 1.663851,5.7787 0.546773,-0.1822 1.746086,-1.5727 2.665141,-3.0898 z m -20.828992,61.3111 c 0,-1.1 0.5625,-1.9931 1.25,-1.9847 2.110715,0.026 4.044296,1.6995 3.319098,2.8729 -0.377922,0.6115 -1.560574,1.1118 -2.628115,1.1118 -1.274316,0 -1.940983,-0.6869 -1.940983,-2 z m 16.078947,-21.5833 c 0.04798,-1.165 0.284941,-1.4019 0.604167,-0.6042 0.288871,0.7219 0.253344,1.5844 -0.07895,1.9167 -0.332292,0.3323 -0.568641,-0.2584 -0.52522,-1.3125 z m 41.098404,-13.973 c 0.356212,-1.7105 2.090444,-2.1403 2.589913,-0.6419 0.174496,0.5235 -0.409446,1.2307 -1.297649,1.5715 -1.114108,0.4275 -1.514855,0.1392 -1.292264,-0.9296 z m 6.419205,-27.2875 c -0.346049,-0.5599 -0.1419,-1.3192 0.453663,-1.6872 1.537485,-0.9503 2.529468,0.3513 1.245982,1.6348 -0.71818,0.7182 -1.277526,0.7354 -1.699645,0.052 z m 7.403444,-1.0175 c 0,-0.4738 1.125,-0.6463 2.5,-0.3835 1.375,0.2629 2.5,0.6505 2.5,0.8614 0,0.2109 -1.125,0.3834 -2.5,0.3834 -1.375,0 -2.5,-0.3876 -2.5,-0.8613 z m -26,-17.0997 c 0,-1.7303 -0.882236,-3.783 -2.122423,-4.9384 l -2.122422,-1.9774 2.952948,-4.8116 c 1.624122,-2.6464 4.067744,-5.4404 5.430272,-6.2089 1.588313,-0.8959 3.71257,-1.164 5.919474,-0.7471 4.41357,0.8337 10.232119,4.3662 9.402621,5.7084 -0.42198,0.6827 -1.182132,0.5927 -2.241456,-0.2654 -0.936262,-0.7585 -1.316667,-0.8209 -0.914642,-0.15 0.378559,0.6317 -0.427285,2.2067 -1.790765,3.5 -1.363479,1.2933 -2.486828,3.1389 -2.49633,4.1014 -0.01074,1.0878 -0.787439,1.75 -2.052461,1.75 -1.746522,0 -1.878466,0.2928 -0.930261,2.0646 0.899487,1.6807 1.378727,1.8373 2.577565,0.8423 1.112683,-0.9234 1.754686,-0.9401 2.626515,-0.068 0.871829,0.8719 0.678146,1.5137 -0.792382,2.6259 -1.174231,0.888 -4.227112,1.4845 -7.696253,1.5037 -5.712572,0.032 -5.75,0.013 -5.75,-2.9292 z"
           id="path9616"
           inkscape:connector-curvature="0" />
        <path
           style="fill:#636363"
           d="m -50.658311,1155.6747 c -0.950218,-1.5375 0.35135,-2.5295 1.634836,-1.246 0.71818,0.7182 0.735435,1.2775 0.05243,1.6996 -0.559919,0.3461 -1.31919,0.1419 -1.687268,-0.4536 z m 22.531037,-5.4498 c 0,-0.825 -0.45,-1.5 -1,-1.5 -0.55,0 -1,-0.9784 -1,-2.1743 l 0,-2.1743 2.5,2.3486 c 1.375,1.2918 2.5,2.9452 2.5,3.6743 0,0.7291 -0.675,1.3257 -1.5,1.3257 -0.825,0 -1.5,-0.675 -1.5,-1.5 z m -30.25,-0.7994 c -1.5125,-0.5977 -2.735346,-1.5623 -2.717435,-2.1436 0.01791,-0.5814 1.607626,-1.7948 3.532701,-2.6966 l 3.500134,-1.6396 1.4673,3.5117 c 0.807015,1.9315 1.4673,3.6818 1.4673,3.8896 0,0.7295 -4.528355,0.1539 -7.25,-0.9215 z m -11.75,-1.7006 c 0,-1.1 0.5625,-1.9931 1.25,-1.9847 2.110715,0.026 4.044296,1.6995 3.319098,2.8729 -0.377922,0.6115 -1.560574,1.1118 -2.628115,1.1118 -1.274316,0 -1.940983,-0.6869 -1.940983,-2 z m 21.570027,-0.8867 c -0.301403,-0.4877 0.122039,-1.4428 0.940983,-2.1224 1.182537,-0.9815 1.797709,-0.9796 2.98899,0.01 0.825,0.6846 1.5,1.6398 1.5,2.1224 0,1.1485 -4.71941,1.1406 -5.429973,-0.01 z m 8.429973,-11.2681 c 0,-0.6352 1.806093,-2.873 4.013541,-4.9729 2.933876,-2.7909 4.377955,-5.2375 5.368215,-9.0951 0.745071,-2.9025 1.140833,-5.8397 0.87947,-6.5272 -0.784563,-2.0638 -4.130946,-1.415 -6.448175,1.25 -1.867501,2.1478 -3.0197,2.5 -8.178935,2.5 -4.789391,0 -6.4738,0.4402 -8.319665,2.1743 -1.272948,1.1959 -2.314451,1.6373 -2.314451,0.981 0,-0.7554 -0.867882,-0.9756 -2.364465,-0.6 -1.555184,0.3904 -2.551569,0.1059 -2.911125,-0.8311 -0.328742,-0.8567 -2.644402,-1.673 -5.80896,-2.0478 -5.367443,-0.6357 -8.513204,-2.2576 -5.832667,-3.0071 6.90446,-1.9308 7.424213,-2.2667 7.739876,-5.0023 0.177463,-1.538 -0.400398,-3.8998 -1.284136,-5.2486 -1.35888,-2.0739 -1.926675,-2.281 -3.680018,-1.3427 -1.140273,0.6103 -2.417454,0.7304 -2.838179,0.2669 -0.420726,-0.4634 -1.045096,-3.3769 -1.387488,-6.4744 -0.480329,-4.3454 -0.281068,-5.9153 0.872315,-6.8725 0.822166,-0.6823 1.494847,-2.0105 1.494847,-2.9515 0,-0.941 0.276578,-1.9874 0.614619,-2.3255 0.33804,-0.338 1.668251,0.076 2.956024,0.9195 1.287772,0.8438 2.752086,1.2804 3.254029,0.9702 0.501943,-0.3103 1.211656,-2.4341 1.577141,-4.7197 0.365485,-2.2857 0.885978,-3.9342 1.156651,-3.6636 0.270673,0.2707 0.653616,5.6183 0.850983,11.8835 0.197367,6.2653 0.550972,12.0664 0.785789,12.8914 1.398409,4.9131 2.21758,5.948 5.862716,7.4065 4.487504,1.7956 11.535128,2.0789 15.376948,0.6183 2.068949,-0.7867 2.5651,-1.6422 2.5651,-4.4233 0,-2.2179 -0.890894,-4.5068 -2.497118,-6.4157 l -2.497117,-2.9677 3.247117,-0.4566 c 1.785915,-0.2512 4.028364,-0.7961 4.98322,-1.2108 1.290235,-0.5604 1.969736,-0.1395 2.645824,1.6387 0.500348,1.3161 1.631195,2.9916 2.512995,3.7234 1.286997,1.0681 2.180994,1.0913 4.531881,0.1175 1.610735,-0.6672 3.748642,-2.1198 4.750904,-3.2281 1.002262,-1.1083 3.559466,-2.9016 5.682676,-3.9852 l 3.860383,-1.9703 -1.579719,2.2554 c -0.868845,1.2404 -3.731017,3.8841 -6.360382,5.8749 -2.716653,2.0568 -4.810498,4.4621 -4.849766,5.5712 -0.03801,1.0735 -1.048824,3.5268 -2.246262,5.4518 -1.197438,1.925 -2.178842,4.4575 -2.180898,5.6279 -0.0069,3.9527 -3.152236,9.847 -7.802632,14.6221 -2.544257,2.6125 -4.980339,4.75 -5.413514,4.75 -0.433176,0 -0.787592,-0.5197 -0.787592,-1.1548 z m 9.015313,-2.0362 c -0.0084,-0.93 0.434687,-1.9691 0.984687,-2.309 1.265597,-0.7822 1.265597,0.5416 0,2.5 -0.835399,1.2927 -0.971491,1.2663 -0.984687,-0.191 z m -22.936366,-7.3923 c 0.04798,-1.165 0.284941,-1.4019 0.604167,-0.6042 0.288871,0.7219 0.253344,1.5844 -0.07895,1.9167 -0.332292,0.3323 -0.568641,-0.2584 -0.52522,-1.3125 z m 7.965249,-32.656 c -0.02431,-0.9566 0.85781,-4.1066 1.960261,-7 1.733162,-4.5487 1.807812,-5.4059 0.551549,-6.3332 -1.213959,-0.8962 -0.951087,-1.5129 1.598371,-3.75 1.678203,-1.4726 3.429489,-2.6775 3.891747,-2.6775 1.649594,0 3.953876,4.5006 3.953876,7.7225 0,2.757 -0.366685,3.2775 -2.30887,3.2775 -1.269879,0 -3.024859,0.5625 -3.899957,1.25 -0.875097,0.6875 -2.516217,3.05 -3.646933,5.25 -1.148386,2.2344 -2.075356,3.2323 -2.100044,2.2607 z m 48.705804,-9.423 c 0.6875,-0.2774 1.8125,-0.2774 2.5,0 0.6875,0.2774 0.125,0.5044 -1.25,0.5044 -1.375,0 -1.9375,-0.227 -1.25,-0.5044 z m -22.222927,-15.3815 c 0.853849,-1.3816 -1.345014,-3.9517 -3.399518,-3.9735 -0.895155,-0.01 -2.66972,-1.1162 -3.943478,-2.4594 l -2.315923,-2.4422 2.670738,-4.5573 c 1.468907,-2.5065 3.6237,-5.2247 4.78843,-6.0405 1.16473,-0.8158 3.255063,-1.4734 4.645184,-1.4613 3.031738,0.026 10.467207,3.2624 11.560495,5.0314 0.569924,0.9222 0.183029,1.1056 -1.437801,0.6817 -1.528336,-0.3996 -2.410641,-0.06 -2.838841,1.0925 -0.341713,0.9198 -1.525887,2.9127 -2.631498,4.4286 -1.424766,1.9536 -2.566059,2.5799 -3.91885,2.1505 -1.705259,-0.5412 -1.831611,-0.2489 -1.185714,2.7438 0.397615,1.8422 1.118208,3.4995 1.601319,3.6828 0.483111,0.1834 0.878384,0.7459 0.878384,1.25 0,0.5042 -1.151558,0.9167 -2.559017,0.9167 -1.522963,0 -2.297836,-0.4226 -1.91391,-1.0438 z"
           id="path9614"
           inkscape:connector-curvature="0" />
        <text
           xml:space="preserve"
           style="font-size:5.72064066px;font-style:normal;font-variant:normal;font-weight:normal;font-stretch:normal;text-align:center;line-height:125%;letter-spacing:0px;word-spacing:0px;text-anchor:middle;fill:#000000;fill-opacity:1;stroke:none;font-family:Georgia;-inkscape-font-specification:Georgia"
           x="6.0392795"
           y="1019.4788"
           id="text10281"
           sodipodi:linespacing="125%"
           transform="scale(-1,1)"><tspan
             sodipodi:role="line"
             id="tspan10283"
             x="6.0392785"
             y="1019.4788"
             style="font-size:22.88256264px">ATTENTION</tspan></text>
      </g>
    </g>
  </g>
</svg>
