<?xml version="1.0" encoding="UTF-8" standalone="no"?>
<!-- Created with Inkscape (http://www.inkscape.org/) -->

<svg
   xmlns:dc="http://purl.org/dc/elements/1.1/"
   xmlns:cc="http://creativecommons.org/ns#"
   xmlns:rdf="http://www.w3.org/1999/02/22-rdf-syntax-ns#"
   xmlns:svg="http://www.w3.org/2000/svg"
   xmlns="http://www.w3.org/2000/svg"
   xmlns:sodipodi="http://sodipodi.sourceforge.net/DTD/sodipodi-0.dtd"
   xmlns:inkscape="http://www.inkscape.org/namespaces/inkscape"
   width="744.09448819"
   height="1052.3622047"
   id="svg10315"
   version="1.1"
   inkscape:version="0.48.3.1 r9886"
   sodipodi:docname="email-backing.svg">
  <defs
     id="defs10317" />
  <sodipodi:namedview
     id="base"
     pagecolor="#ffffff"
     bordercolor="#666666"
     borderopacity="1.0"
     inkscape:pageopacity="0.0"
     inkscape:pageshadow="2"
     inkscape:zoom="1.979899"
     inkscape:cx="375"
     inkscape:cy="520"
     inkscape:document-units="px"
     inkscape:current-layer="layer1"
     showgrid="false"
     inkscape:window-width="1026"
     inkscape:window-height="1051"
     inkscape:window-x="685"
     inkscape:window-y="24"
     inkscape:window-maximized="0" />
  <metadata
     id="metadata10320">
    <rdf:RDF>
      <cc:Work
         rdf:about="">
        <dc:format>image/svg+xml</dc:format>
        <dc:type
           rdf:resource="http://purl.org/dc/dcmitype/StillImage" />
        <dc:title></dc:title>
      </cc:Work>
    </rdf:RDF>
  </metadata>
  <g
     inkscape:label="Layer 1"
     inkscape:groupmode="layer"
     id="layer1">
    <rect
       style="fill:none;stroke:#000000;stroke-opacity:0.10880827"
       id="rect2985"
       width="225"
       height="315"
       x="262.5"
       y="374.86218"
       inkscape:export-filename="/home/tc1/git/flamewar/images/email-backing.png"
       inkscape:export-xdpi="300"
       inkscape:export-ydpi="300" />
    <g
       id="g3816"
       transform="matrix(0.41387986,-0.12181147,0.12181147,0.41387986,207.97291,407.69963)">
      <path
         sodipodi:nodetypes="ccssc"
         inkscape:connector-curvature="0"
         id="path3808"
         d="m 183.18867,380.93786 c 6.02392,33.17586 13.3859,42.26665 17.72132,105.83564 -4.25789,-12.77367 228.11865,-35.51032 231.36164,-55.13298 4.71925,-28.55518 -25.07924,-114.43728 -27.07423,-105.83565 -3.57006,15.39273 -225.36804,31.61781 -222.00873,55.13299 z"
         style="fill:none;stroke:#000000;stroke-width:6.89162302;stroke-linecap:butt;stroke-linejoin:miter;stroke-miterlimit:4;stroke-opacity:1;stroke-dasharray:none" />
      <path
         inkscape:connector-curvature="0"
         id="path3810"
         d="M 185.71429,378.07647 C 190,378.79075 328.57143,432.36218 328.57143,432.36218 L 406.42857,326.6479"
         style="fill:none;stroke:#000000;stroke-width:5;stroke-linecap:butt;stroke-linejoin:miter;stroke-miterlimit:4;stroke-opacity:1;stroke-dasharray:none" />
    </g>
    <path
       style="fill:#000000"
       d=""
       id="path2996"
       inkscape:connector-curvature="0" />
    <path
       style="opacity:0.57476633;fill:#000000;fill-opacity:1;stroke:none"
       d=""
       id="path3008"
       inkscape:connector-curvature="0" />
    <g
       id="g3820"
       transform="matrix(0.43143317,0,0,0.43143317,253.33065,376.02821)">
      <path
         inkscape:connector-curvature="0"
         id="path3038"
         d="m 258.49353,419.20366 c -5.69944,-4.43398 -14.86262,-10.81278 -20.36262,-14.17511 -13.35882,-8.1667 -20.68392,-14.21368 -35.03893,-28.9252 -25.12612,-25.75012 -37.34481,-47.33813 -33.67292,-59.49339 2.18165,-7.22205 8.70596,-16.82262 17.96185,-26.43097 5.0875,-5.28123 9.25,-10.0297 9.25,-10.55216 0,-0.52245 -3.7125,-3.70729 -8.25,-7.07743 -11.84892,-8.80054 -23.21918,-19.61204 -27.94617,-26.57285 -5.48143,-8.07376 -18.52837,-30.7251 -9.22306,-27.78524 3.73649,1.18049 4.70668,1.0607 11.5,-1.41995 6.72814,-2.45685 8.35072,-2.66387 17.41923,-2.22246 11.27046,0.54859 18.64264,2.68171 37.21623,10.76843 6.25061,2.72144 12.0635,4.94807 12.91754,4.94807 0.85403,0 5.89831,-3.63152 11.20951,-8.07005 13.7481,-11.48919 25.8956,-19.41114 32.2764,-21.04895 3.87346,-0.99422 11.82192,-1.35577 28.38032,-1.29093 22.39111,0.0877 23.74126,0.21173 51,4.68568 15.4,2.52758 30.39452,4.89618 33.32115,5.26355 6.56956,0.82466 7.69328,2.76129 3.63016,6.25624 -2.8016,2.40983 -3.19743,2.46323 -13.91746,1.87752 -6.06862,-0.33157 -12.04635,-0.89613 -13.28385,-1.25459 -1.82993,-0.53006 -2.25,-0.25657 -2.25,1.4649 0,1.88306 -0.57154,2.11663 -5.17931,2.11663 l -5.17932,0 5.42932,2.75 c 4.39126,2.22422 5.42931,3.22798 5.42931,5.25 0,2.06434 -0.5405,2.55268 -3.10165,2.80229 -1.7059,0.16627 -5.35274,-0.55305 -8.10408,-1.59848 -4.86002,-1.84666 -5.03529,-1.84815 -6.15682,-0.0523 -1.50253,2.40593 -5.74151,2.37578 -11.47438,-0.0816 -4.00743,-1.71778 -4.56892,-1.75764 -5.10436,-0.36231 -0.48175,1.25544 -1.66819,1.45771 -5.95507,1.01526 -4.95331,-0.51122 -5.50186,-0.35179 -7.339,2.13308 -1.38323,1.87092 -1.83903,3.68386 -1.50256,5.97641 0.40209,2.7396 0.12277,3.38501 -1.66759,3.8532 -1.37915,0.36066 -1.99,1.14566 -1.70292,2.18843 0.24621,0.89432 0.74396,4.65717 1.10612,8.3619 0.6377,6.52338 0.57843,6.77233 -1.87883,7.89193 -2.02949,0.9247 -2.34532,1.51479 -1.57808,2.9484 0.52757,0.98577 0.9611,2.8344 0.96339,4.10806 0.004,1.96535 2.00839,3.33145 13.25,9.02851 7.28521,3.69203 20.00376,10.72703 28.26344,15.63335 16.7248,9.93466 31.68361,16.05279 57.60472,23.56022 22.0714,6.39246 25.31339,7.70086 25.69722,10.37082 0.41351,2.87643 -0.71349,2.85947 -14.98955,-0.22553 -19.93333,-4.30751 -39.51836,-5.48292 -41.37242,-2.483 -0.69624,1.12655 3.35043,8.48419 7.93719,14.43137 1.69675,2.2 8.26605,9.625 14.59844,16.5 21.51226,23.3556 23.00679,25.11323 23.00679,27.057 0,5.15168 -4.53274,1.74122 -24.41663,-18.37119 -30.43658,-30.78639 -49.79617,-45.99001 -63.08899,-49.54551 -2.19691,-0.58762 -12.31938,-1.77248 -22.49438,-2.63301 -17.52464,-1.48213 -30.56992,-3.35538 -37.69178,-5.4124 -2.85237,-0.82385 -3.22457,-0.69182 -3.5,1.24161 -0.26626,1.869 -0.93406,2.15625 -4.90579,2.11021 -3.70732,-0.043 -4.77231,0.34429 -5.5,2 -0.74381,1.69238 -1.81708,2.05329 -6.10605,2.05329 -3.28904,0 -4.85276,0.34954 -4.25,0.95 1.94331,1.93593 1.06515,6.54206 -1.46724,7.69589 -1.41139,0.64308 -2.2027,1.67151 -1.89769,2.46636 0.3111,0.81071 -0.7318,2.07765 -2.57282,3.12555 -2.25367,1.28276 -3.0977,2.49433 -3.10231,4.45318 -0.003,1.48004 -0.40506,2.93742 -0.8924,3.23861 -1.21061,0.7482 0.87761,6.48195 3.63608,9.98379 1.2375,1.57098 2.25,3.98967 2.25,5.37486 0,1.65065 1.72297,4.3403 5,7.80528 3.41838,3.61443 5,6.12705 5,7.94317 0,1.68102 1.48862,4.34757 4.05415,7.26216 2.94445,3.34507 3.97732,5.33816 3.77347,7.28152 -0.20195,1.9253 0.76449,3.83262 3.44586,6.80057 2.76877,3.0647 3.72652,5.0022 3.72652,7.53861 0,1.87758 -0.45756,3.5663 -1.0168,3.75272 -0.59304,0.19768 -0.17628,1.98757 1,4.29477 2.52388,4.95044 2.54017,6.58334 0.0721,7.22874 -1.48247,0.38768 -1.72011,0.9002 -0.99986,2.15638 1.9735,3.44195 4.94453,11.39193 4.94453,13.23075 0,1.44682 -0.70829,1.91709 -2.88738,1.91709 -2.08746,0 -5.75822,-2.23342 -13.25,-8.06177 z"
         style="fill:#55585f;fill-opacity:1" />
      <path
         sodipodi:nodetypes="cssssssccsssssssssssssscssssssssssssssscssssssssssssssssssssscssssssssscssssscccsssssssssssssssssssssscccscssssssssssssssscsssssssscsssssssssssssssssssssccssssssssssscccssss"
         inkscape:connector-curvature="0"
         id="path2998-9"
         d="m 259.32846,419.79477 c -5.69944,-4.43398 -14.86262,-10.81278 -20.36262,-14.17511 -13.35882,-8.1667 -20.68392,-14.21368 -35.03893,-28.9252 -25.12612,-25.75012 -37.34481,-47.33813 -33.67292,-59.49339 2.18165,-7.22205 8.70596,-16.82262 17.96185,-26.43097 5.0875,-5.28123 9.25,-10.0297 9.25,-10.55216 0,-0.52245 -3.7125,-3.70729 -8.25,-7.07743 -11.84892,-8.80054 -23.21918,-19.61204 -27.94617,-26.57285 -5.48143,-8.07376 -18.52837,-30.7251 -9.22306,-27.78524 3.73649,1.18049 4.70668,1.0607 11.5,-1.41995 6.72814,-2.45685 8.35072,-2.66387 17.41923,-2.22246 11.27046,0.54859 18.64264,2.68171 37.21623,10.76843 6.25061,2.72144 12.0635,4.94807 12.91754,4.94807 0.85403,0 5.89831,-3.63152 11.20951,-8.07005 13.7481,-11.48919 25.8956,-19.41114 32.2764,-21.04895 3.87346,-0.99422 11.82192,-1.35577 28.38032,-1.29093 22.39111,0.0877 23.74126,0.21173 51,4.68568 15.4,2.52758 30.39452,4.89618 33.32115,5.26355 6.56956,0.82466 7.69328,2.76129 3.63016,6.25624 -2.8016,2.40983 -3.19743,2.46323 -13.91746,1.87752 -6.06862,-0.33157 -12.04635,-0.89613 -13.28385,-1.25459 -1.82993,-0.53006 -2.25,-0.25657 -2.25,1.4649 0,1.88306 -0.57154,2.11663 -5.17931,2.11663 l -5.17932,0 5.42932,2.75 c 4.39126,2.22422 5.42931,3.22798 5.42931,5.25 0,2.06434 -0.5405,2.55268 -3.10165,2.80229 -1.7059,0.16627 -5.35274,-0.55305 -8.10408,-1.59848 -4.86002,-1.84666 -5.03529,-1.84815 -6.15682,-0.0523 -1.50253,2.40593 -5.74151,2.37578 -11.47438,-0.0816 -4.00743,-1.71778 -4.56892,-1.75764 -5.10436,-0.36231 -0.48175,1.25544 -1.66819,1.45771 -5.95507,1.01526 -4.95331,-0.51122 -5.50186,-0.35179 -7.339,2.13308 -1.38323,1.87092 -1.83903,3.68386 -1.50256,5.97641 0.40209,2.7396 0.12277,3.38501 -1.66759,3.8532 -1.37915,0.36066 -1.99,1.14566 -1.70292,2.18843 0.24621,0.89432 0.74396,4.65717 1.10612,8.3619 0.6377,6.52338 0.57843,6.77233 -1.87883,7.89193 -2.02949,0.9247 -2.34532,1.51479 -1.57808,2.9484 0.52757,0.98577 0.9611,2.8344 0.96339,4.10806 0.004,1.96535 2.00839,3.33145 13.25,9.02851 7.28521,3.69203 20.00376,10.72703 28.26344,15.63335 16.7248,9.93466 31.68361,16.05279 57.60472,23.56022 22.0714,6.39246 25.31339,7.70086 25.69722,10.37082 0.41351,2.87643 -0.71349,2.85947 -14.98955,-0.22553 -19.93333,-4.30751 -39.51836,-5.48292 -41.37242,-2.483 -0.69624,1.12655 3.35043,8.48419 7.93719,14.43137 1.69675,2.2 8.26605,9.625 14.59844,16.5 21.51226,23.3556 23.00679,25.11323 23.00679,27.057 0,5.15168 -4.53274,1.74122 -24.41663,-18.37119 -30.43658,-30.78639 -49.79617,-45.99001 -63.08899,-49.54551 -2.19691,-0.58762 -12.31938,-1.77248 -22.49438,-2.63301 -17.52464,-1.48213 -30.56992,-3.35538 -37.69178,-5.4124 -2.85237,-0.82385 -3.22457,-0.69182 -3.5,1.24161 -0.26626,1.869 -0.93406,2.15625 -4.90579,2.11021 -3.70732,-0.043 -4.77231,0.34429 -5.5,2 -0.74381,1.69238 -1.81708,2.05329 -6.10605,2.05329 -3.28904,0 -4.85276,0.34954 -4.25,0.95 1.94331,1.93593 1.06515,6.54206 -1.46724,7.69589 -1.41139,0.64308 -2.2027,1.67151 -1.89769,2.46636 0.3111,0.81071 -0.7318,2.07765 -2.57282,3.12555 -2.25367,1.28276 -3.0977,2.49433 -3.10231,4.45318 -0.003,1.48004 -0.40506,2.93742 -0.8924,3.23861 -1.21061,0.7482 0.87761,6.48195 3.63608,9.98379 1.2375,1.57098 2.25,3.98967 2.25,5.37486 0,1.65065 1.72297,4.3403 5,7.80528 3.41838,3.61443 5,6.12705 5,7.94317 0,1.68102 1.48862,4.34757 4.05415,7.26216 2.94445,3.34507 3.97732,5.33816 3.77347,7.28152 -0.20195,1.9253 0.76449,3.83262 3.44586,6.80057 2.76877,3.0647 3.72652,5.0022 3.72652,7.53861 0,1.87758 -0.45756,3.5663 -1.0168,3.75272 -0.59304,0.19768 -0.17628,1.98757 1,4.29477 2.52388,4.95044 2.54017,6.58334 0.0721,7.22874 -1.48247,0.38768 -1.72011,0.9002 -0.99986,2.15638 1.9735,3.44195 4.94453,11.39193 4.94453,13.23075 0,1.44682 -0.70829,1.91709 -2.88738,1.91709 -2.08746,0 -5.75822,-2.23342 -13.25,-8.06177 z m 11.14701,-0.41577 c -1.12917,-2.63424 -4.29327,-7.24071 -7.03133,-10.23659 -7.67006,-8.39225 -6.2239,-11.30802 2.35837,-4.75497 4.96676,3.7924 5.2359,2.83812 0.99079,-3.51303 -3.10303,-4.64247 -3.04846,-6.41565 0.17254,-5.60723 1.375,0.34511 2.5,0.21427 2.5,-0.29076 0,-0.50502 -2.7,-3.89756 -6,-7.53898 -6.40775,-7.07069 -6.98171,-8.24519 -4.28332,-8.76485 1.39934,-0.26949 1.02962,-1.0911 -2,-4.44453 -2.34727,-2.59815 -3.71668,-5.10456 -3.71668,-6.80258 0,-1.86342 -1.57236,-4.3512 -5.12279,-8.10525 -3.80467,-4.02289 -4.9825,-5.95306 -4.57756,-7.50154 0.3851,-1.47262 -0.31307,-2.84968 -2.37721,-4.68884 -1.9026,-1.69522 -2.92244,-3.57254 -2.92244,-5.37959 0,-1.52663 -0.45,-3.0538 -1,-3.39372 -0.55,-0.33992 -1,-1.49148 -1,-2.55902 0,-1.06754 0.45,-1.94098 1,-1.94098 0.55,0 1,-1.53098 1,-3.40217 0,-2.92546 0.44655,-3.55785 3.18687,-4.51313 2.45911,-0.85725 2.91584,-1.38199 2,-2.29783 -2.09217,-2.09217 -1.32864,-3.78687 1.70614,-3.78687 4.39209,0 4.68534,-2.60744 0.59147,-5.25909 -5.83926,-3.78217 -4.61737,-4.88219 4.57184,-4.11584 l 8.05631,0.67188 -0.69857,-2.78335 -0.69858,-2.78335 4.89226,0.72624 c 2.69074,0.39944 5.34226,0.79763 5.89226,0.88488 0.55,0.0872 0.86597,-0.814 0.70215,-2.00278 -0.43404,-3.14969 0.86676,-3.47166 7.27863,-1.80158 8.78352,2.28782 22.52192,4.23346 38.51922,5.45511 7.975,0.60903 17.25432,1.69202 20.62072,2.40666 13.60096,2.8873 36.89616,20.97477 67.76643,52.61699 8.86207,9.08367 13.82017,14.03367 11.018,11 -2.80217,-3.03367 -11.12717,-12.08131 -18.5,-20.10585 -18.00624,-19.59788 -24.00337,-30.09374 -19.38503,-33.92662 2.21999,-1.84243 26.53937,-0.62796 38.43298,1.91927 16.70319,3.5773 12.2338,1.70804 -12.47424,-5.2172 -20.76166,-5.81913 -36.98626,-12.65276 -54.25376,-22.85112 -9.1988,-5.43291 -22.46828,-12.81242 -29.48773,-16.39889 -12.18558,-6.22605 -12.75256,-6.65287 -12.54017,-9.44032 0.14226,-1.86694 -0.57421,-3.76745 -1.98737,-5.27169 -3.14084,-3.34327 -2.77736,-4.72335 1.24404,-4.72335 l 3.45387,0 -0.44103,-6.25 c -0.24256,-3.4375 -0.72426,-7.4875 -1.07044,-9 -0.53462,-2.33578 -0.30884,-2.75 1.49897,-2.75 1.92307,0 2.06669,-0.38589 1.48877,-4 -0.43452,-2.71735 -0.27111,-4 0.50962,-4 0.63209,0 1.65789,-1.11635 2.27957,-2.48078 1.40961,-3.09376 3.29101,-3.69605 8.09153,-2.59034 3.2479,0.7481 3.96577,0.58012 5.22911,-1.22354 l 1.46437,-2.09069 5.29022,2.19268 c 6.13172,2.54145 9.75157,2.82049 9.75157,0.75169 0,-2.6543 1.9288,-2.67778 9.04685,-0.11016 8.09058,2.91844 7.95315,2.89207 7.95315,1.52589 0,-0.56388 -3.41496,-2.58149 -7.58881,-4.48358 -9.49162,-4.32547 -9.51315,-6.13885 -0.0669,-5.63892 4.39513,0.23261 6.65571,-0.0221 6.65571,-0.75 0,-0.60624 -0.45,-1.10225 -1,-1.10225 -0.55,0 -1,-0.73425 -1,-1.63167 0,-1.34567 0.74493,-1.52805 4.25,-1.04051 20.40422,2.83816 23.67592,3.04978 26.207,1.69519 1.39865,-0.74853 2.543,-1.6768 2.543,-2.06282 0,-0.38602 -2.8125,-1.0056 -6.25,-1.37685 -3.4375,-0.37124 -17.275,-2.54807 -30.75,-4.8374 -24.24441,-4.119 -24.76602,-4.16286 -50,-4.20418 -24.06253,-0.0394 -25.76325,0.0799 -30.16987,2.11656 -6.79268,3.13945 -15.88021,9.47638 -27.97888,19.51026 -5.85682,4.85728 -11.55441,8.83142 -12.66131,8.83142 -1.10691,0 -7.33997,-2.29858 -13.85125,-5.10795 -16.57898,-7.1532 -24.22176,-9.64377 -33.48637,-10.91227 -8.98305,-1.22995 -11.42998,-0.91972 -21.07785,2.67234 -6.62139,2.46526 -6.81493,2.47854 -12.5,0.85796 0.22453,1.96587 3.50994,6.95132 5.82549,8.60595 6.81202,4.82411 8.71379,7.884 4.90004,7.884 -1.1,0 -2,0.25686 -2,0.57081 0,0.31394 2.06045,3.45826 4.57877,6.98738 5.32431,7.46135 13.0266,14.70806 26.67123,25.09368 6.93133,5.27578 9.75,8.03384 9.75,9.54033 0,1.32004 -3.51057,5.73694 -9.30991,11.71346 -5.38135,5.54577 -11.18351,12.75915 -13.75,17.09434 -4.02883,6.80532 -4.44009,8.10206 -4.44009,14 0,5.54794 0.55242,7.57978 3.77153,13.87202 10.99755,21.49635 39.79369,51.68966 62.62592,65.66448 5.8314,3.5692 15.55255,10.29044 21.60255,14.9361 6.05,4.64565 11.1266,8.08501 11.28133,7.64302 0.15474,-0.44199 -0.64253,-2.95891 -1.7717,-5.59316 z M 169.03402,239.53005 c -2.75432,-2.01401 -1.35724,-4.89691 2.17613,-4.49048 2.1837,0.25118 2.75569,0.83305 2.75569,2.80327 0,2.91706 -2.21405,3.67449 -4.93182,1.68721 z"
         style="fill:#000000" />
    </g>
    <path
       style="fill:none;stroke:#000000;stroke-width:2.15716577;stroke-linecap:butt;stroke-linejoin:miter;stroke-miterlimit:4;stroke-opacity:1;stroke-dasharray:none"
       d="m 370.12578,508.01811 6.77966,10.47766 0.30816,4.00617"
       id="path3826"
       inkscape:connector-curvature="0"
       sodipodi:nodetypes="ccc" />
    <path
       style="fill:none;stroke:#000000;stroke-width:2.15716577;stroke-linecap:butt;stroke-linejoin:miter;stroke-miterlimit:4;stroke-opacity:1;stroke-dasharray:none"
       d="m 375.05644,508.01811 11.09399,8.62867"
       id="path3828"
       inkscape:connector-curvature="0"
       sodipodi:nodetypes="cc" />
  </g>
</svg>
